<mxfile host="app.diagrams.net" agent="Mozilla/5.0 (Windows NT 10.0; Win64; x64) AppleWebKit/537.36 (KHTML, like Gecko) Chrome/140.0.0.0 Safari/537.36" version="28.2.1">
  <diagram id="rMnzzqtd4RvcZYJ7AM6o" name="ページ1">
    <mxGraphModel dx="655" dy="376" grid="1" gridSize="10" guides="1" tooltips="1" connect="1" arrows="1" fold="1" page="1" pageScale="1" pageWidth="827" pageHeight="1169" math="0" shadow="0">
      <root>
        <mxCell id="0" />
        <mxCell id="1" parent="0" />
        <mxCell id="MLb29W4eotIlCSqBktrK-17" value="" style="shape=umlLifeline;perimeter=lifelinePerimeter;whiteSpace=wrap;html=1;container=1;dropTarget=0;collapsible=0;recursiveResize=0;outlineConnect=0;portConstraint=eastwest;newEdgeStyle={&quot;curved&quot;:0,&quot;rounded&quot;:0};participant=umlBoundary;align=center;" vertex="1" parent="1">
          <mxGeometry x="160" y="70" width="50" height="330" as="geometry" />
        </mxCell>
        <mxCell id="MLb29W4eotIlCSqBktrK-34" value="" style="html=1;points=[[0,0,0,0,5],[0,1,0,0,-5],[1,0,0,0,5],[1,1,0,0,-5]];perimeter=orthogonalPerimeter;outlineConnect=0;targetShapes=umlLifeline;portConstraint=eastwest;newEdgeStyle={&quot;curved&quot;:0,&quot;rounded&quot;:0};" vertex="1" parent="MLb29W4eotIlCSqBktrK-17">
          <mxGeometry x="20" y="100" width="10" height="80" as="geometry" />
        </mxCell>
        <mxCell id="MLb29W4eotIlCSqBktrK-20" value="" style="html=1;points=[[0,0,0,0,5],[0,1,0,0,-5],[1,0,0,0,5],[1,1,0,0,-5]];perimeter=orthogonalPerimeter;outlineConnect=0;targetShapes=umlLifeline;portConstraint=eastwest;newEdgeStyle={&quot;curved&quot;:0,&quot;rounded&quot;:0};" vertex="1" parent="1">
          <mxGeometry x="50" y="460" width="10" height="80" as="geometry" />
        </mxCell>
        <mxCell id="MLb29W4eotIlCSqBktrK-21" value="活性区間&lt;div&gt;Activation Bar&lt;/div&gt;" style="text;html=1;align=center;verticalAlign=middle;resizable=0;points=[];autosize=1;strokeColor=none;fillColor=none;" vertex="1" parent="1">
          <mxGeometry x="50" y="473" width="100" height="40" as="geometry" />
        </mxCell>
        <mxCell id="MLb29W4eotIlCSqBktrK-22" value="" style="shape=umlLifeline;perimeter=lifelinePerimeter;whiteSpace=wrap;html=1;container=1;dropTarget=0;collapsible=0;recursiveResize=0;outlineConnect=0;portConstraint=eastwest;newEdgeStyle={&quot;curved&quot;:0,&quot;rounded&quot;:0};participant=umlActor;" vertex="1" parent="1">
          <mxGeometry x="60" y="70" width="20" height="340" as="geometry" />
        </mxCell>
        <mxCell id="MLb29W4eotIlCSqBktrK-33" value="" style="html=1;points=[[0,0,0,0,5],[0,1,0,0,-5],[1,0,0,0,5],[1,1,0,0,-5]];perimeter=orthogonalPerimeter;outlineConnect=0;targetShapes=umlLifeline;portConstraint=eastwest;newEdgeStyle={&quot;curved&quot;:0,&quot;rounded&quot;:0};" vertex="1" parent="MLb29W4eotIlCSqBktrK-22">
          <mxGeometry x="5" y="80" width="10" height="110" as="geometry" />
        </mxCell>
        <mxCell id="MLb29W4eotIlCSqBktrK-44" value="" style="html=1;points=[[0,0,0,0,5],[0,1,0,0,-5],[1,0,0,0,5],[1,1,0,0,-5]];perimeter=orthogonalPerimeter;outlineConnect=0;targetShapes=umlLifeline;portConstraint=eastwest;newEdgeStyle={&quot;curved&quot;:0,&quot;rounded&quot;:0};" vertex="1" parent="MLb29W4eotIlCSqBktrK-22">
          <mxGeometry x="5" y="210" width="10" height="120" as="geometry" />
        </mxCell>
        <mxCell id="MLb29W4eotIlCSqBktrK-24" value="" style="endArrow=none;dashed=1;html=1;rounded=0;" edge="1" parent="1">
          <mxGeometry width="50" height="50" relative="1" as="geometry">
            <mxPoint x="170" y="550" as="sourcePoint" />
            <mxPoint x="170" y="460" as="targetPoint" />
          </mxGeometry>
        </mxCell>
        <mxCell id="MLb29W4eotIlCSqBktrK-25" value="生存線&lt;div&gt;Life Line&lt;/div&gt;" style="text;html=1;align=center;verticalAlign=middle;resizable=0;points=[];autosize=1;strokeColor=none;fillColor=none;" vertex="1" parent="1">
          <mxGeometry x="160" y="473" width="70" height="40" as="geometry" />
        </mxCell>
        <mxCell id="MLb29W4eotIlCSqBktrK-26" value="" style="shape=umlLifeline;perimeter=lifelinePerimeter;whiteSpace=wrap;html=1;container=1;dropTarget=0;collapsible=0;recursiveResize=0;outlineConnect=0;portConstraint=eastwest;newEdgeStyle={&quot;curved&quot;:0,&quot;rounded&quot;:0};participant=umlBoundary;align=center;" vertex="1" parent="1">
          <mxGeometry x="260" y="70" width="50" height="330" as="geometry" />
        </mxCell>
        <mxCell id="MLb29W4eotIlCSqBktrK-45" value="" style="html=1;points=[[0,0,0,0,5],[0,1,0,0,-5],[1,0,0,0,5],[1,1,0,0,-5]];perimeter=orthogonalPerimeter;outlineConnect=0;targetShapes=umlLifeline;portConstraint=eastwest;newEdgeStyle={&quot;curved&quot;:0,&quot;rounded&quot;:0};" vertex="1" parent="MLb29W4eotIlCSqBktrK-26">
          <mxGeometry x="20" y="220" width="10" height="80" as="geometry" />
        </mxCell>
        <mxCell id="MLb29W4eotIlCSqBktrK-27" value="" style="shape=umlLifeline;perimeter=lifelinePerimeter;whiteSpace=wrap;html=1;container=1;dropTarget=0;collapsible=0;recursiveResize=0;outlineConnect=0;portConstraint=eastwest;newEdgeStyle={&quot;curved&quot;:0,&quot;rounded&quot;:0};participant=umlControl;" vertex="1" parent="1">
          <mxGeometry x="370" y="70" width="40" height="330" as="geometry" />
        </mxCell>
        <mxCell id="MLb29W4eotIlCSqBktrK-46" value="" style="html=1;points=[[0,0,0,0,5],[0,1,0,0,-5],[1,0,0,0,5],[1,1,0,0,-5]];perimeter=orthogonalPerimeter;outlineConnect=0;targetShapes=umlLifeline;portConstraint=eastwest;newEdgeStyle={&quot;curved&quot;:0,&quot;rounded&quot;:0};" vertex="1" parent="MLb29W4eotIlCSqBktrK-27">
          <mxGeometry x="15" y="230" width="10" height="40" as="geometry" />
        </mxCell>
        <mxCell id="MLb29W4eotIlCSqBktrK-28" value="" style="shape=umlLifeline;perimeter=lifelinePerimeter;whiteSpace=wrap;html=1;container=1;dropTarget=0;collapsible=0;recursiveResize=0;outlineConnect=0;portConstraint=eastwest;newEdgeStyle={&quot;curved&quot;:0,&quot;rounded&quot;:0};participant=umlEntity;" vertex="1" parent="1">
          <mxGeometry x="480" y="70" width="40" height="330" as="geometry" />
        </mxCell>
        <mxCell id="MLb29W4eotIlCSqBktrK-47" value="" style="html=1;points=[[0,0,0,0,5],[0,1,0,0,-5],[1,0,0,0,5],[1,1,0,0,-5]];perimeter=orthogonalPerimeter;outlineConnect=0;targetShapes=umlLifeline;portConstraint=eastwest;newEdgeStyle={&quot;curved&quot;:0,&quot;rounded&quot;:0};" vertex="1" parent="MLb29W4eotIlCSqBktrK-28">
          <mxGeometry x="15" y="240" width="10" height="60" as="geometry" />
        </mxCell>
        <mxCell id="MLb29W4eotIlCSqBktrK-29" value="メニュー画面" style="text;html=1;align=center;verticalAlign=middle;resizable=0;points=[];autosize=1;labelBackgroundColor=default;" vertex="1" parent="1">
          <mxGeometry x="135" y="110" width="100" height="30" as="geometry" />
        </mxCell>
        <mxCell id="MLb29W4eotIlCSqBktrK-30" value="学生情報登録" style="text;html=1;align=center;verticalAlign=middle;resizable=0;points=[];autosize=1;labelBackgroundColor=default;" vertex="1" parent="1">
          <mxGeometry x="340" y="110" width="100" height="30" as="geometry" />
        </mxCell>
        <mxCell id="MLb29W4eotIlCSqBktrK-31" value="学生オブジェクト" style="text;html=1;align=center;verticalAlign=middle;resizable=0;points=[];autosize=1;labelBackgroundColor=default;" vertex="1" parent="1">
          <mxGeometry x="440" y="110" width="120" height="30" as="geometry" />
        </mxCell>
        <mxCell id="MLb29W4eotIlCSqBktrK-32" value="学生登録画面" style="text;html=1;align=center;verticalAlign=middle;resizable=0;points=[];autosize=1;labelBackgroundColor=default;" vertex="1" parent="1">
          <mxGeometry x="235" y="110" width="100" height="30" as="geometry" />
        </mxCell>
        <mxCell id="MLb29W4eotIlCSqBktrK-35" value="" style="endArrow=classic;html=1;rounded=0;" edge="1" parent="1">
          <mxGeometry width="50" height="50" relative="1" as="geometry">
            <mxPoint x="78" y="170" as="sourcePoint" />
            <mxPoint x="179" y="170" as="targetPoint" />
          </mxGeometry>
        </mxCell>
        <mxCell id="MLb29W4eotIlCSqBktrK-36" value="学生登録を選択()" style="edgeLabel;html=1;align=center;verticalAlign=middle;resizable=0;points=[];" vertex="1" connectable="0" parent="MLb29W4eotIlCSqBktrK-35">
          <mxGeometry x="-0.2926" y="-1" relative="1" as="geometry">
            <mxPoint x="20" y="-11" as="offset" />
          </mxGeometry>
        </mxCell>
        <mxCell id="MLb29W4eotIlCSqBktrK-37" value="操作()&lt;div&gt;Method&lt;/div&gt;" style="text;html=1;align=center;verticalAlign=middle;resizable=0;points=[];autosize=1;strokeColor=none;fillColor=none;" vertex="1" parent="1">
          <mxGeometry x="250" y="473" width="60" height="40" as="geometry" />
        </mxCell>
        <mxCell id="MLb29W4eotIlCSqBktrK-38" value="" style="endArrow=classic;html=1;rounded=0;" edge="1" parent="1">
          <mxGeometry width="50" height="50" relative="1" as="geometry">
            <mxPoint x="234.5" y="513" as="sourcePoint" />
            <mxPoint x="335.5" y="513" as="targetPoint" />
          </mxGeometry>
        </mxCell>
        <mxCell id="MLb29W4eotIlCSqBktrK-40" value="&lt;div&gt;メッセージ&lt;/div&gt;Message" style="text;html=1;align=center;verticalAlign=middle;resizable=0;points=[];autosize=1;strokeColor=none;fillColor=none;" vertex="1" parent="1">
          <mxGeometry x="360" y="473" width="80" height="40" as="geometry" />
        </mxCell>
        <mxCell id="MLb29W4eotIlCSqBktrK-41" value="" style="html=1;points=[[0,0,0,0,5],[0,1,0,0,-5],[1,0,0,0,5],[1,1,0,0,-5]];perimeter=orthogonalPerimeter;outlineConnect=0;targetShapes=umlLifeline;portConstraint=eastwest;newEdgeStyle={&quot;curved&quot;:0,&quot;rounded&quot;:0};" vertex="1" parent="1">
          <mxGeometry x="280" y="180" width="10" height="60" as="geometry" />
        </mxCell>
        <mxCell id="MLb29W4eotIlCSqBktrK-42" value="" style="endArrow=classic;html=1;rounded=0;" edge="1" parent="1">
          <mxGeometry width="50" height="50" relative="1" as="geometry">
            <mxPoint x="190" y="180" as="sourcePoint" />
            <mxPoint x="280" y="180" as="targetPoint" />
          </mxGeometry>
        </mxCell>
        <mxCell id="MLb29W4eotIlCSqBktrK-43" value="表示()" style="edgeLabel;html=1;align=center;verticalAlign=middle;resizable=0;points=[];" vertex="1" connectable="0" parent="MLb29W4eotIlCSqBktrK-42">
          <mxGeometry x="-0.2926" y="-1" relative="1" as="geometry">
            <mxPoint x="13" y="-11" as="offset" />
          </mxGeometry>
        </mxCell>
        <mxCell id="MLb29W4eotIlCSqBktrK-48" value="" style="endArrow=classic;html=1;rounded=0;" edge="1" parent="1" target="MLb29W4eotIlCSqBktrK-26">
          <mxGeometry width="50" height="50" relative="1" as="geometry">
            <mxPoint x="80" y="290" as="sourcePoint" />
            <mxPoint x="171" y="290" as="targetPoint" />
          </mxGeometry>
        </mxCell>
        <mxCell id="MLb29W4eotIlCSqBktrK-49" value="学生データ入力()" style="edgeLabel;html=1;align=center;verticalAlign=middle;resizable=0;points=[];" vertex="1" connectable="0" parent="MLb29W4eotIlCSqBktrK-48">
          <mxGeometry x="-0.2926" y="-1" relative="1" as="geometry">
            <mxPoint x="20" y="-11" as="offset" />
          </mxGeometry>
        </mxCell>
        <mxCell id="MLb29W4eotIlCSqBktrK-50" value="" style="endArrow=classic;html=1;rounded=0;" edge="1" parent="1">
          <mxGeometry width="50" height="50" relative="1" as="geometry">
            <mxPoint x="290" y="301" as="sourcePoint" />
            <mxPoint x="385" y="301" as="targetPoint" />
          </mxGeometry>
        </mxCell>
        <mxCell id="MLb29W4eotIlCSqBktrK-51" value="起動()" style="edgeLabel;html=1;align=center;verticalAlign=middle;resizable=0;points=[];" vertex="1" connectable="0" parent="MLb29W4eotIlCSqBktrK-50">
          <mxGeometry x="-0.2926" y="-1" relative="1" as="geometry">
            <mxPoint x="20" y="-11" as="offset" />
          </mxGeometry>
        </mxCell>
        <mxCell id="MLb29W4eotIlCSqBktrK-52" value="" style="endArrow=classic;html=1;rounded=0;" edge="1" parent="1">
          <mxGeometry width="50" height="50" relative="1" as="geometry">
            <mxPoint x="396" y="310" as="sourcePoint" />
            <mxPoint x="497" y="310" as="targetPoint" />
          </mxGeometry>
        </mxCell>
        <mxCell id="MLb29W4eotIlCSqBktrK-53" value="学生データ登録()" style="edgeLabel;html=1;align=center;verticalAlign=middle;resizable=0;points=[];" vertex="1" connectable="0" parent="MLb29W4eotIlCSqBktrK-52">
          <mxGeometry x="-0.2926" y="-1" relative="1" as="geometry">
            <mxPoint x="16" y="-11" as="offset" />
          </mxGeometry>
        </mxCell>
      </root>
    </mxGraphModel>
  </diagram>
</mxfile>
